<mxfile host="app.diagrams.net" modified="2021-04-01T10:59:29.657Z" agent="5.0 (Windows NT 10.0; Win64; x64) AppleWebKit/537.36 (KHTML, like Gecko) Chrome/89.0.4389.82 Safari/537.36" etag="Qq9H3oven17PprgJKYD0" version="14.5.3" type="github">
  <diagram id="fmbKC0q2LWB_QT3ke4Zq" name="Page-1">
    <mxGraphModel dx="2000" dy="2452" grid="1" gridSize="10" guides="1" tooltips="1" connect="1" arrows="1" fold="1" page="1" pageScale="1" pageWidth="827" pageHeight="1169" math="0" shadow="0">
      <root>
        <mxCell id="0" />
        <mxCell id="1" parent="0" />
        <mxCell id="uHbE02Shf1vOJwbQu4bD-41" value="" style="rounded=1;whiteSpace=wrap;html=1;strokeColor=#666666;fontColor=#333333;fillColor=#B3B3B3;" vertex="1" parent="1">
          <mxGeometry x="500" y="-1010" width="90" height="160" as="geometry" />
        </mxCell>
        <mxCell id="uHbE02Shf1vOJwbQu4bD-54" value="" style="rounded=0;whiteSpace=wrap;html=1;fillColor=#dae8fc;strokeColor=#6c8ebf;" vertex="1" parent="1">
          <mxGeometry x="500" y="-992.5" width="90" height="125" as="geometry" />
        </mxCell>
        <mxCell id="uHbE02Shf1vOJwbQu4bD-3" value="" style="shape=parallelogram;perimeter=parallelogramPerimeter;whiteSpace=wrap;html=1;fixedSize=1;strokeColor=#432D57;fontColor=#ffffff;fillColor=#000000;" vertex="1" parent="1">
          <mxGeometry x="210" y="-680" width="200" height="60" as="geometry" />
        </mxCell>
        <mxCell id="uHbE02Shf1vOJwbQu4bD-4" value="" style="rounded=0;whiteSpace=wrap;html=1;strokeColor=#432D57;fontColor=#ffffff;fillColor=#000000;" vertex="1" parent="1">
          <mxGeometry x="230" y="-780" width="180" height="100" as="geometry" />
        </mxCell>
        <mxCell id="uHbE02Shf1vOJwbQu4bD-10" value="" style="rounded=0;whiteSpace=wrap;html=1;fillColor=#dae8fc;strokeColor=#6c8ebf;" vertex="1" parent="1">
          <mxGeometry x="240" y="-770" width="160" height="80" as="geometry" />
        </mxCell>
        <mxCell id="uHbE02Shf1vOJwbQu4bD-19" value="" style="endArrow=none;html=1;strokeColor=#B3B3B3;" edge="1" parent="1">
          <mxGeometry width="50" height="50" relative="1" as="geometry">
            <mxPoint x="280" y="-621" as="sourcePoint" />
            <mxPoint x="290" y="-651" as="targetPoint" />
          </mxGeometry>
        </mxCell>
        <mxCell id="uHbE02Shf1vOJwbQu4bD-20" value="" style="endArrow=none;html=1;strokeColor=#B3B3B3;" edge="1" parent="1">
          <mxGeometry width="50" height="50" relative="1" as="geometry">
            <mxPoint x="310" y="-621" as="sourcePoint" />
            <mxPoint x="320" y="-651" as="targetPoint" />
          </mxGeometry>
        </mxCell>
        <mxCell id="uHbE02Shf1vOJwbQu4bD-21" value="" style="endArrow=none;html=1;strokeColor=#B3B3B3;" edge="1" parent="1">
          <mxGeometry width="50" height="50" relative="1" as="geometry">
            <mxPoint x="280" y="-621" as="sourcePoint" />
            <mxPoint x="310" y="-621" as="targetPoint" />
          </mxGeometry>
        </mxCell>
        <mxCell id="uHbE02Shf1vOJwbQu4bD-22" value="" style="endArrow=none;html=1;strokeColor=#B3B3B3;" edge="1" parent="1">
          <mxGeometry width="50" height="50" relative="1" as="geometry">
            <mxPoint x="290" y="-651.5" as="sourcePoint" />
            <mxPoint x="320" y="-651.5" as="targetPoint" />
          </mxGeometry>
        </mxCell>
        <mxCell id="uHbE02Shf1vOJwbQu4bD-23" value="" style="shape=parallelogram;perimeter=parallelogramPerimeter;whiteSpace=wrap;html=1;fixedSize=1;strokeColor=#432D57;fontColor=#ffffff;fillColor=#000000;" vertex="1" parent="1">
          <mxGeometry x="390" y="-160" width="200" height="60" as="geometry" />
        </mxCell>
        <mxCell id="uHbE02Shf1vOJwbQu4bD-24" value="" style="rounded=0;whiteSpace=wrap;html=1;strokeColor=#432D57;fontColor=#ffffff;fillColor=#000000;" vertex="1" parent="1">
          <mxGeometry x="410" y="-260" width="180" height="100" as="geometry" />
        </mxCell>
        <mxCell id="uHbE02Shf1vOJwbQu4bD-25" value="" style="rounded=0;whiteSpace=wrap;html=1;fillColor=#dae8fc;strokeColor=#6c8ebf;" vertex="1" parent="1">
          <mxGeometry x="420" y="-250" width="160" height="80" as="geometry" />
        </mxCell>
        <mxCell id="uHbE02Shf1vOJwbQu4bD-26" value="" style="endArrow=none;html=1;strokeColor=#B3B3B3;" edge="1" parent="1">
          <mxGeometry width="50" height="50" relative="1" as="geometry">
            <mxPoint x="460" y="-101" as="sourcePoint" />
            <mxPoint x="470" y="-131" as="targetPoint" />
          </mxGeometry>
        </mxCell>
        <mxCell id="uHbE02Shf1vOJwbQu4bD-27" value="" style="endArrow=none;html=1;strokeColor=#B3B3B3;" edge="1" parent="1">
          <mxGeometry width="50" height="50" relative="1" as="geometry">
            <mxPoint x="490" y="-101" as="sourcePoint" />
            <mxPoint x="500" y="-131" as="targetPoint" />
          </mxGeometry>
        </mxCell>
        <mxCell id="uHbE02Shf1vOJwbQu4bD-28" value="" style="endArrow=none;html=1;strokeColor=#B3B3B3;" edge="1" parent="1">
          <mxGeometry width="50" height="50" relative="1" as="geometry">
            <mxPoint x="460" y="-101" as="sourcePoint" />
            <mxPoint x="490" y="-101" as="targetPoint" />
          </mxGeometry>
        </mxCell>
        <mxCell id="uHbE02Shf1vOJwbQu4bD-29" value="" style="endArrow=none;html=1;strokeColor=#B3B3B3;" edge="1" parent="1">
          <mxGeometry width="50" height="50" relative="1" as="geometry">
            <mxPoint x="470" y="-131.5" as="sourcePoint" />
            <mxPoint x="500" y="-131.5" as="targetPoint" />
          </mxGeometry>
        </mxCell>
        <mxCell id="uHbE02Shf1vOJwbQu4bD-35" value="" style="shape=cube;whiteSpace=wrap;html=1;boundedLbl=1;backgroundOutline=1;darkOpacity=0.05;darkOpacity2=0.1;fillColor=#f5f5f5;strokeColor=#666666;fontColor=#333333;" vertex="1" parent="1">
          <mxGeometry x="1100" y="-750" width="180" height="270" as="geometry" />
        </mxCell>
        <mxCell id="uHbE02Shf1vOJwbQu4bD-36" value="" style="rounded=0;whiteSpace=wrap;html=1;fillColor=#f5f5f5;strokeColor=#666666;fontColor=#333333;" vertex="1" parent="1">
          <mxGeometry x="1190" y="-710" width="70" height="20" as="geometry" />
        </mxCell>
        <mxCell id="uHbE02Shf1vOJwbQu4bD-37" value="" style="endArrow=none;html=1;strokeColor=#B3B3B3;entryX=1.014;entryY=0.344;entryDx=0;entryDy=0;entryPerimeter=0;" edge="1" parent="1" target="uHbE02Shf1vOJwbQu4bD-35">
          <mxGeometry width="50" height="50" relative="1" as="geometry">
            <mxPoint x="1120" y="-657" as="sourcePoint" />
            <mxPoint x="960" y="-750" as="targetPoint" />
          </mxGeometry>
        </mxCell>
        <mxCell id="uHbE02Shf1vOJwbQu4bD-38" value="" style="endArrow=none;html=1;strokeColor=#B3B3B3;entryX=0.986;entryY=0.919;entryDx=0;entryDy=0;entryPerimeter=0;" edge="1" parent="1" target="uHbE02Shf1vOJwbQu4bD-35">
          <mxGeometry width="50" height="50" relative="1" as="geometry">
            <mxPoint x="1120" y="-502" as="sourcePoint" />
            <mxPoint x="960" y="-750" as="targetPoint" />
          </mxGeometry>
        </mxCell>
        <mxCell id="uHbE02Shf1vOJwbQu4bD-39" value="" style="ellipse;whiteSpace=wrap;html=1;fillColor=#d5e8d4;strokeColor=#82b366;" vertex="1" parent="1">
          <mxGeometry x="1130" y="-710" width="20" height="20" as="geometry" />
        </mxCell>
        <mxCell id="uHbE02Shf1vOJwbQu4bD-43" value="" style="endArrow=none;html=1;" edge="1" parent="1">
          <mxGeometry width="50" height="50" relative="1" as="geometry">
            <mxPoint x="500" y="-992.5" as="sourcePoint" />
            <mxPoint x="590" y="-992.5" as="targetPoint" />
          </mxGeometry>
        </mxCell>
        <mxCell id="uHbE02Shf1vOJwbQu4bD-44" value="" style="endArrow=none;html=1;strokeColor=#000000;" edge="1" parent="1">
          <mxGeometry width="50" height="50" relative="1" as="geometry">
            <mxPoint x="535" y="-997.5" as="sourcePoint" />
            <mxPoint x="555" y="-997.5" as="targetPoint" />
          </mxGeometry>
        </mxCell>
        <mxCell id="uHbE02Shf1vOJwbQu4bD-45" value="" style="endArrow=none;html=1;fillColor=#f5f5f5;" edge="1" parent="1">
          <mxGeometry width="50" height="50" relative="1" as="geometry">
            <mxPoint x="500" y="-867.5" as="sourcePoint" />
            <mxPoint x="590" y="-867.5" as="targetPoint" />
          </mxGeometry>
        </mxCell>
        <mxCell id="uHbE02Shf1vOJwbQu4bD-46" value="" style="ellipse;whiteSpace=wrap;html=1;fillColor=#000000;" vertex="1" parent="1">
          <mxGeometry x="537.5" y="-897.5" width="15" height="10" as="geometry" />
        </mxCell>
        <mxCell id="uHbE02Shf1vOJwbQu4bD-50" value="" style="curved=1;endArrow=none;html=1;strokeColor=#000000;startArrow=none;startFill=0;endFill=0;" edge="1" parent="1">
          <mxGeometry width="50" height="50" relative="1" as="geometry">
            <mxPoint x="525" y="-897.5" as="sourcePoint" />
            <mxPoint x="565" y="-897.5" as="targetPoint" />
            <Array as="points">
              <mxPoint x="545" y="-917.5" />
            </Array>
          </mxGeometry>
        </mxCell>
        <mxCell id="uHbE02Shf1vOJwbQu4bD-52" value="" style="curved=1;endArrow=none;html=1;strokeColor=#000000;startArrow=none;startFill=0;endFill=0;" edge="1" parent="1">
          <mxGeometry width="50" height="50" relative="1" as="geometry">
            <mxPoint x="515" y="-907.5" as="sourcePoint" />
            <mxPoint x="575" y="-907.5" as="targetPoint" />
            <Array as="points">
              <mxPoint x="545" y="-937.5" />
            </Array>
          </mxGeometry>
        </mxCell>
        <mxCell id="uHbE02Shf1vOJwbQu4bD-53" value="" style="curved=1;endArrow=none;html=1;strokeColor=#000000;startArrow=none;startFill=0;endFill=0;" edge="1" parent="1">
          <mxGeometry width="50" height="50" relative="1" as="geometry">
            <mxPoint x="505" y="-917.5" as="sourcePoint" />
            <mxPoint x="585" y="-917.5" as="targetPoint" />
            <Array as="points">
              <mxPoint x="545" y="-957.5" />
            </Array>
          </mxGeometry>
        </mxCell>
        <mxCell id="uHbE02Shf1vOJwbQu4bD-57" value="" style="rounded=1;whiteSpace=wrap;html=1;strokeColor=#666666;fontColor=#333333;fillColor=#B3B3B3;" vertex="1" parent="1">
          <mxGeometry x="265" y="-480" width="90" height="160" as="geometry" />
        </mxCell>
        <mxCell id="uHbE02Shf1vOJwbQu4bD-58" value="" style="rounded=0;whiteSpace=wrap;html=1;fillColor=#dae8fc;strokeColor=#6c8ebf;" vertex="1" parent="1">
          <mxGeometry x="265" y="-462.5" width="90" height="125" as="geometry" />
        </mxCell>
        <mxCell id="uHbE02Shf1vOJwbQu4bD-59" value="" style="endArrow=none;html=1;" edge="1" parent="1">
          <mxGeometry width="50" height="50" relative="1" as="geometry">
            <mxPoint x="265" y="-462.5" as="sourcePoint" />
            <mxPoint x="355" y="-462.5" as="targetPoint" />
          </mxGeometry>
        </mxCell>
        <mxCell id="uHbE02Shf1vOJwbQu4bD-60" value="" style="endArrow=none;html=1;strokeColor=#000000;" edge="1" parent="1">
          <mxGeometry width="50" height="50" relative="1" as="geometry">
            <mxPoint x="300" y="-467.5" as="sourcePoint" />
            <mxPoint x="320" y="-467.5" as="targetPoint" />
          </mxGeometry>
        </mxCell>
        <mxCell id="uHbE02Shf1vOJwbQu4bD-61" value="" style="endArrow=none;html=1;fillColor=#f5f5f5;" edge="1" parent="1">
          <mxGeometry width="50" height="50" relative="1" as="geometry">
            <mxPoint x="265" y="-337.5" as="sourcePoint" />
            <mxPoint x="355" y="-337.5" as="targetPoint" />
          </mxGeometry>
        </mxCell>
        <mxCell id="uHbE02Shf1vOJwbQu4bD-62" value="" style="ellipse;whiteSpace=wrap;html=1;fillColor=#000000;" vertex="1" parent="1">
          <mxGeometry x="302.5" y="-367.5" width="15" height="10" as="geometry" />
        </mxCell>
        <mxCell id="uHbE02Shf1vOJwbQu4bD-63" value="" style="curved=1;endArrow=none;html=1;strokeColor=#000000;startArrow=none;startFill=0;endFill=0;" edge="1" parent="1">
          <mxGeometry width="50" height="50" relative="1" as="geometry">
            <mxPoint x="290" y="-367.5" as="sourcePoint" />
            <mxPoint x="330" y="-367.5" as="targetPoint" />
            <Array as="points">
              <mxPoint x="310" y="-387.5" />
            </Array>
          </mxGeometry>
        </mxCell>
        <mxCell id="uHbE02Shf1vOJwbQu4bD-64" value="" style="curved=1;endArrow=none;html=1;strokeColor=#000000;startArrow=none;startFill=0;endFill=0;" edge="1" parent="1">
          <mxGeometry width="50" height="50" relative="1" as="geometry">
            <mxPoint x="280" y="-377.5" as="sourcePoint" />
            <mxPoint x="340" y="-377.5" as="targetPoint" />
            <Array as="points">
              <mxPoint x="310" y="-407.5" />
            </Array>
          </mxGeometry>
        </mxCell>
        <mxCell id="uHbE02Shf1vOJwbQu4bD-65" value="" style="curved=1;endArrow=none;html=1;strokeColor=#000000;startArrow=none;startFill=0;endFill=0;" edge="1" parent="1">
          <mxGeometry width="50" height="50" relative="1" as="geometry">
            <mxPoint x="270" y="-387.5" as="sourcePoint" />
            <mxPoint x="350" y="-387.5" as="targetPoint" />
            <Array as="points">
              <mxPoint x="310" y="-427.5" />
            </Array>
          </mxGeometry>
        </mxCell>
        <mxCell id="uHbE02Shf1vOJwbQu4bD-75" value="" style="endArrow=none;html=1;strokeColor=#000000;" edge="1" parent="1">
          <mxGeometry width="50" height="50" relative="1" as="geometry">
            <mxPoint x="730" y="-640" as="sourcePoint" />
            <mxPoint x="600" y="-840" as="targetPoint" />
          </mxGeometry>
        </mxCell>
        <mxCell id="uHbE02Shf1vOJwbQu4bD-76" value="" style="endArrow=none;html=1;strokeColor=#000000;" edge="1" parent="1">
          <mxGeometry width="50" height="50" relative="1" as="geometry">
            <mxPoint x="650" y="-550" as="sourcePoint" />
            <mxPoint x="420" y="-640" as="targetPoint" />
          </mxGeometry>
        </mxCell>
        <mxCell id="uHbE02Shf1vOJwbQu4bD-77" value="&lt;font style=&quot;font-size: 36px&quot;&gt;Internet&lt;/font&gt;" style="ellipse;shape=cloud;whiteSpace=wrap;html=1;fillColor=#dae8fc;strokeColor=#6c8ebf;" vertex="1" parent="1">
          <mxGeometry x="650" y="-620" width="260" height="180" as="geometry" />
        </mxCell>
        <mxCell id="uHbE02Shf1vOJwbQu4bD-78" value="" style="endArrow=none;html=1;strokeColor=#000000;entryX=0.067;entryY=0.823;entryDx=0;entryDy=0;entryPerimeter=0;" edge="1" parent="1" target="uHbE02Shf1vOJwbQu4bD-77">
          <mxGeometry width="50" height="50" relative="1" as="geometry">
            <mxPoint x="390" y="-390" as="sourcePoint" />
            <mxPoint x="720" y="-730" as="targetPoint" />
          </mxGeometry>
        </mxCell>
        <mxCell id="uHbE02Shf1vOJwbQu4bD-79" value="" style="endArrow=none;html=1;strokeColor=#000000;" edge="1" parent="1">
          <mxGeometry width="50" height="50" relative="1" as="geometry">
            <mxPoint x="600" y="-280" as="sourcePoint" />
            <mxPoint x="720" y="-440" as="targetPoint" />
          </mxGeometry>
        </mxCell>
        <mxCell id="uHbE02Shf1vOJwbQu4bD-80" value="" style="endArrow=none;html=1;strokeColor=#000000;exitX=0.875;exitY=0.5;exitDx=0;exitDy=0;exitPerimeter=0;" edge="1" parent="1" source="uHbE02Shf1vOJwbQu4bD-77">
          <mxGeometry width="50" height="50" relative="1" as="geometry">
            <mxPoint x="670" y="-390" as="sourcePoint" />
            <mxPoint x="1100" y="-529" as="targetPoint" />
          </mxGeometry>
        </mxCell>
        <mxCell id="uHbE02Shf1vOJwbQu4bD-81" value="&lt;font style=&quot;font-size: 48px&quot;&gt;Klienter&lt;/font&gt;" style="text;html=1;strokeColor=none;fillColor=none;align=center;verticalAlign=middle;whiteSpace=wrap;rounded=0;" vertex="1" parent="1">
          <mxGeometry x="430" y="-1130" width="40" height="20" as="geometry" />
        </mxCell>
        <mxCell id="uHbE02Shf1vOJwbQu4bD-82" value="&lt;font style=&quot;font-size: 48px&quot;&gt;Server&lt;/font&gt;" style="text;html=1;strokeColor=none;fillColor=none;align=center;verticalAlign=middle;whiteSpace=wrap;rounded=0;" vertex="1" parent="1">
          <mxGeometry x="1170" y="-1120" width="40" height="20" as="geometry" />
        </mxCell>
      </root>
    </mxGraphModel>
  </diagram>
</mxfile>
